<?xml version="1.0" encoding="utf-8"?>
<!-- Generator: Adobe Illustrator 25.4.1, SVG Export Plug-In . SVG Version: 6.00 Build 0)  -->
<svg version="1.1" id="Layer_1" xmlns="http://www.w3.org/2000/svg" xmlns:xlink="http://www.w3.org/1999/xlink" x="0px" y="0px"
	 viewBox="0 0 1080 1080" style="enable-background:new 0 0 1080 1080;" xml:space="preserve">
<g>
	<path style="fill:#FFFFFF;" d="M898.7,148.2c-4.1-3.3-8-6.4-11.9-9.6c-2.7-2.2-5.3-4.4-8.1-6.5c-12.8-9.8-13.8-23.4-8.2-37
		c4.4-10.5,12.8-17.4,23.2-21.2c8.2-3,16.8-4.8,25.4-6.6c29.3-6,58.6-11.7,87.9-17.6c12.1-2.4,20.7,2.4,24.7,14.1
		c3.2,9.2,3.4,18.8,3.3,28.4c-0.3,27.8-0.6,55.7-1.1,83.5c-0.1,5.9-0.6,11.9-1.7,17.6c-1.7,8.9-6.4,16.3-13.3,22.1
		c-9.1,7.7-19.4,9.2-29.7,3.4c-8.2-4.6-15.6-10.6-23.3-16.1c-1.3-0.9-2.2-2.4-3.6-3.9c-0.8,1.2-1.5,2.2-2.1,3.3
		C894.7,308.2,829.1,414.1,763.5,520c-11,17.8-22.3,35.4-33.7,52.9c-2.9,4.5-6.2,8.7-9.8,12.6c-16.4,17.2-37.2,20.9-58.6,10.3
		c-24.6-12.2-49-24.6-73.5-36.9c-27.1-13.6-54.1-27.2-81.2-40.6c-4-2-8.3-3.6-12.7-4.8c-7.2-1.9-12.6,0.4-16.4,6.9
		c-7.5,12.8-15.1,25.7-22.2,38.7c-73.6,135.1-147.1,270.2-220.6,405.3c-7.1,13.1-13.7,26.5-21.3,39.3c-5.5,9.3-11.8,18.3-18.8,26.5
		c-16.4,19.4-38,27.5-63.1,25.3c-44.7-4.1-78.2-26.2-100.8-64.8c-8.7-14.9-12.9-31.5-15-48.6c-2.2-17.8-2.1-35.6-1.6-53.5
		c0.4-16.3,5.6-31.1,13.5-45.2c8.3-14.8,19.1-27.7,29.4-41.1C92.2,757,127,711.6,161.7,666.1C238.5,565.5,315.2,464.9,392,364.4
		c6-7.8,11.7-16,18.1-23.4c4.2-4.8,9.1-9.1,14.4-12.6c14-9.1,28.7-10.1,43.8-2.6c31.2,15.6,62.5,31.2,93.7,46.7
		c26.5,13.2,53,26.3,79.4,39.6c8.9,4.5,17.6,9.4,26.5,13.7c5.4,2.6,11.3,4.7,17.4,3.4c3-0.6,6.2-2.1,8.5-4.2c3.5-3.2,6.5-7.1,9.4-11
		c23.4-32,46.5-64.3,70-96.2c41.1-55.8,82.4-111.4,123.6-167.1C897.4,150.1,897.9,149.3,898.7,148.2z M913.2,105.6
		c4,3.3,7.3,5.8,10.3,8.6c6.8,6.1,10.2,13.6,8.6,22.7c-0.6,3.6-1.6,7.4-3.4,10.6c-3.8,6.8-7.7,13.6-12.3,19.8
		c-46.9,63.6-93.9,127.2-140.9,190.7c-21.7,29.4-43.5,58.7-65.3,87.9c-5.8,7.8-13.1,14-22,17.9c-14.6,6.4-28.9,4.6-42.8-2.4
		c-30.6-15.3-61.3-30.4-91.8-45.8c-30.5-15.4-60.9-31.2-91.4-46.7c-6-3-12.1-5.8-18.5-7.8c-11.3-3.6-17-1.4-24,8.2
		c-3.4,4.7-6.5,9.6-10.1,14.3C334.4,482.4,259.2,581,183.9,679.6C140.5,736.4,97.2,793.3,53.8,850c-5.3,7-8.7,14.7-8.8,23.4
		c-0.2,13.2-0.2,26.5,0.5,39.6c1.9,32.4,15.3,59.4,40.7,79.8c19.3,15.6,41.4,24.4,66.6,23.9c16.2-0.4,28.7-7.4,36.6-22
		c51.2-94.2,102.7-188.2,153.8-282.4c37.5-69.1,74.2-138.6,113.5-206.6c2.4-4.1,5-8.1,8-11.7c16.1-19.6,38.8-24.7,61.3-13.5
		c52.9,26.4,105.7,53,158.6,79.6c5.4,2.7,10.9,3.9,16.9,3.1c3.6-0.5,6.5-1.8,8.1-5.4c1.1-2.4,2.5-4.7,3.9-6.9
		c60.6-97.5,121.2-195.1,181.8-292.6c16.4-26.4,32.7-52.8,49.4-79.1c3.6-5.7,8.2-11,13.2-15.5c8.3-7.4,17.1-7.6,26.2-1.2
		c4.4,3.1,8.6,6.6,12.8,10c1.7,1.4,3.5,2.8,5.6,4.5c0.1-1.4,0.2-2.3,0.2-3.1c0.2-11.8,0.4-23.7,0.4-35.5c0.1-14.9,0.1-29.8,0-44.7
		c-0.1-6.1-0.5-6.2-6.4-5.1c-0.2,0-0.4,0.1-0.6,0.1c-19.5,3.9-39.1,7.8-58.6,11.7C929.8,102,921.9,103.8,913.2,105.6z"/>
	<path style="fill:#FFFFFF;" d="M992.9,728.3c-0.8,0.8-1.6,1.6-2.3,2.5c-25.1,27.9-52.7,53-83.7,74.4
		c-45.3,31.3-94.7,53.3-148.3,65.8c-39.1,9.1-78.6,12.8-118.7,11c-47.7-2.1-93.8-11.9-138.3-29.3c-46.5-18.1-88.5-43.7-126-76.7
		c-0.4-0.4-1-0.6-1.5-0.9c0.2-0.2,0.4-0.5,0.6-0.7c0.8,0.6,1.7,1.1,2.5,1.8c49.6,37.9,104.9,63.6,165.9,76.7
		c38.2,8.2,76.9,11,115.9,8.1c80.7-6,153.6-33,218.1-81.9c42.9-32.5,76.9-72.7,102.6-119.9c2.8-5.1,5.4-10.3,8.3-15.4
		c9.5-16.9,24-25.5,43.5-23.8c18.7,1.6,32,11.5,39,29.1c3.7,9.2,3.5,18.7,1,28.2c-16.6,62.3-43.7,119.5-82.9,170.8
		c-46.1,60.3-103.1,107.7-170.3,143c-49,25.8-101,42.9-155.6,51.8c-38.8,6.3-77.9,8.1-117.2,5.3c-97.3-6.8-185.5-38.7-264.3-96.4
		c-2.3-1.7-4.6-3.4-6.9-5.2c-0.2-0.1-0.3-0.3-0.3-0.4c128.5,76.9,265.3,99.2,409.8,56.5c145.2-42.9,245.9-138.1,309.7-273.7
		C993.4,728.8,993.1,728.6,992.9,728.3z"/>
	<path style="fill:#FFFFFF;" d="M232.7,534.4c-18.9-76.9-17.6-153.3,5.7-229.1c23.3-75.7,65.1-139.7,122.6-193.9
		c-13.7,1.1-92.3,51.1-122.6,77.6c-36.9,32.3-68.6,68.9-94.5,110.6c-25.7,41.5-44.9,85.9-57.3,133.1
		c-12.5,47.4-17.7,95.6-16.2,144.5c1.6,48.9,10,96.6,25.4,143c-0.2,0.1-0.4,0.2-0.6,0.3c-0.4-0.7-0.8-1.3-1.1-2
		C77.4,681.9,65.4,643.7,58,604.1c-6.1-32.6-8.9-65.5-8.3-98.6C51,428.6,68.5,355.5,103,286.9c44-87.5,107.5-157.5,191.5-208.4
		c39.2-23.8,81.3-41,125.6-52.7c28-7.4,53.9,9.1,59.3,37.6c3.6,18.9-5.9,38.7-22.7,48.2c-15.7,8.8-31.6,17.5-46.9,27
		c-28.9,17.9-54.2,40.2-76.9,65.4c-48.2,53.4-79.4,115.5-94.8,185.7c-7.6,34.7-10.3,69.9-8.7,105.3c0.5,12.5,2.1,25,3.2,37.4
		C232.6,533.1,232.6,533.8,232.7,534.4z"/>
</g>
</svg>
